<svg xmlns="http://www.w3.org/2000/svg" viewBox="0 0 200 200" aria-hidden="true">
  <defs>
    <radialGradient id="fur" cx="50%" cy="38%" r="62%">
      <stop offset="0%" stop-color="#ffd9a8"/>
      <stop offset="55%" stop-color="#f7b072"/>
      <stop offset="100%" stop-color="#e8884a"/>
    </radialGradient>
    <radialGradient id="belly" cx="50%" cy="55%" r="55%">
      <stop offset="0%" stop-color="#fff7ec"/>
      <stop offset="100%" stop-color="#ffe6c4"/>
    </radialGradient>
  </defs>
  <!-- body -->
  <ellipse cx="100" cy="148" rx="58" ry="40" fill="url(#fur)"/>
  <ellipse cx="100" cy="156" rx="36" ry="22" fill="url(#belly)"/>
  <!-- tail -->
  <path d="M156 150 Q186 132 174 108 Q168 96 178 88" stroke="#e8884a" stroke-width="14" stroke-linecap="round" fill="none"/>
  <!-- head -->
  <circle cx="100" cy="92" r="52" fill="url(#fur)"/>
  <!-- ears -->
  <path d="M55 60 Q60 28 82 58 Z" fill="#e8884a"/>
  <path d="M145 60 Q140 28 118 58 Z" fill="#e8884a"/>
  <path d="M62 56 Q66 40 78 56 Z" fill="#ffb8b8"/>
  <path d="M138 56 Q134 40 122 56 Z" fill="#ffb8b8"/>
  <!-- tabby stripes -->
  <path d="M70 58 Q74 50 78 58" stroke="#c66a2c" stroke-width="3" fill="none" stroke-linecap="round"/>
  <path d="M122 58 Q126 50 130 58" stroke="#c66a2c" stroke-width="3" fill="none" stroke-linecap="round"/>
  <path d="M65 78 Q70 74 75 78" stroke="#c66a2c" stroke-width="2.5" fill="none" stroke-linecap="round"/>
  <path d="M125 78 Q130 74 135 78" stroke="#c66a2c" stroke-width="2.5" fill="none" stroke-linecap="round"/>
  <!-- cheeks -->
  <ellipse cx="74" cy="106" rx="9" ry="5" fill="#ffaeae" opacity="0.7"/>
  <ellipse cx="126" cy="106" rx="9" ry="5" fill="#ffaeae" opacity="0.7"/>
  <!-- eyes -->
  <ellipse cx="82" cy="92" rx="7.5" ry="9" fill="#2a2a2a"/>
  <ellipse cx="118" cy="92" rx="7.5" ry="9" fill="#2a2a2a"/>
  <circle cx="84.5" cy="89" r="2.6" fill="#fff"/>
  <circle cx="120.5" cy="89" r="2.6" fill="#fff"/>
  <circle cx="80" cy="95" r="1.2" fill="#fff"/>
  <circle cx="116" cy="95" r="1.2" fill="#fff"/>
  <!-- nose + mouth -->
  <path d="M97 106 Q100 110 103 106 Q100 112 100 112 Z" fill="#ff7e8a"/>
  <path d="M100 112 Q96 117 91 115" stroke="#3a2a22" stroke-width="2.2" fill="none" stroke-linecap="round"/>
  <path d="M100 112 Q104 117 109 115" stroke="#3a2a22" stroke-width="2.2" fill="none" stroke-linecap="round"/>
  <!-- whiskers -->
  <path d="M62 110 L82 108" stroke="#3a2a22" stroke-width="1.2" stroke-linecap="round" opacity="0.55"/>
  <path d="M62 116 L82 114" stroke="#3a2a22" stroke-width="1.2" stroke-linecap="round" opacity="0.55"/>
  <path d="M138 110 L118 108" stroke="#3a2a22" stroke-width="1.2" stroke-linecap="round" opacity="0.55"/>
  <path d="M138 116 L118 114" stroke="#3a2a22" stroke-width="1.2" stroke-linecap="round" opacity="0.55"/>
</svg>
